#tb 0: 1001/30000
0,          0,          0,        1,      792, df20e8df89449fe50bb610e95a449a95
0,          1,          1,        1,      792, 18f1a66d463274d1b0489f3a50e86857
0,          2,          2,        1,      792, b0cc102875a94c9a92e53826617adbe9
0,          3,          3,        1,      792, dfece7c17b4b149283ef51bdc1bd440e
0,          4,          4,        1,      792, 6e346884f67be259fcabe493109cb63c
0,          5,          5,        1,      792, 6d282127311eb2d958377490d7cb77f0
0,          6,          6,        1,      792, 637ac8b14ca5ddbaf7b8910406c3cd08
0,          7,          7,        1,      792, e7980f3fcb36969da0d218c4389fa9e8
0,          8,          8,        1,      792, 730a1c95b9fb165f6e1a2f33a0d25de0
0,          9,          9,        1,      792, 7bd8424d0783b1c8ad617e17408371bb
